<svg width="276" height="55" viewBox="0 0 276 55" fill="none" xmlns="http://www.w3.org/2000/svg">
<g clip-path="url(#clip0_3_9)">
<path d="M63.1023 11.9987V0.194519H67.672C71.3045 0.194519 73.8237 2.54684 73.8237 6.08749C73.8237 9.62813 71.3045 11.9987 67.6899 11.9987H63.1023ZM71.3045 6.08749C71.3045 4.01781 70.0539 2.40704 67.6899 2.40704H65.5707V9.78617H67.675C69.9703 9.78617 71.3075 8.1055 71.3075 6.08749H71.3045Z" fill="white"/>
<path d="M75.0266 6.10571C75.0266 2.54987 77.5816 0 81.0918 0C84.6019 0 87.139 2.54683 87.139 6.10571C87.139 9.66459 84.584 12.2114 81.0918 12.2114C77.5995 12.2114 75.0266 9.66459 75.0266 6.10571ZM84.6019 6.10571C84.6019 3.89319 83.2289 2.23076 81.0918 2.23076C78.9546 2.23076 77.5637 3.89319 77.5637 6.10571C77.5637 8.31823 78.9367 9.98066 81.0918 9.98066C83.2468 9.98066 84.6019 8.29999 84.6019 6.10571Z" fill="white"/>
<path d="M88.321 6.10571C88.321 2.46173 91.0133 0 94.5085 0C97.0456 0 98.5231 1.39802 99.3409 2.88418L97.2217 3.94485C96.7352 2.99055 95.6935 2.22772 94.5115 2.22772C92.3923 2.22772 90.8611 3.87191 90.8611 6.10267C90.8611 8.33343 92.3893 9.97762 94.5115 9.97762C95.6935 9.97762 96.7352 9.21783 97.2217 8.26048L99.3409 9.30292C98.5231 10.7708 97.0456 12.2053 94.5085 12.2053C91.0163 12.2053 88.321 9.72841 88.321 6.09963V6.10571Z" fill="white"/>
<path d="M105.281 11.9987V0.194519H110.704C113.223 0.194519 114.596 1.92989 114.596 3.99957C114.596 6.06925 113.205 7.78639 110.704 7.78639H107.749V11.9987H105.281ZM112.077 3.99957C112.077 3.0088 111.331 2.40704 110.358 2.40704H107.752V5.57386H110.358C111.331 5.57386 112.077 4.97211 112.077 3.99957Z" fill="white"/>
<path d="M122.867 11.9987L122.136 9.99891H117.166L116.435 11.9987H113.638L118.106 0.194519H121.199L125.664 11.9987H122.867ZM119.653 2.70792L117.847 7.78639H121.461L119.653 2.70792Z" fill="white"/>
<path d="M133.296 11.9987L131.019 7.80462H129.21V11.9987H126.742V0.194519H132.165C134.58 0.194519 136.075 1.80528 136.075 3.99957C136.075 6.06925 134.771 7.20286 133.52 7.50374L136.144 11.9987H133.293H133.296ZM133.541 3.98437C133.541 3.01184 132.795 2.41008 131.822 2.41008H129.216V5.59514H131.822C132.795 5.59514 133.541 4.99338 133.541 3.98437Z" fill="white"/>
<path d="M137.12 10.3332L138.475 8.36991C139.293 9.23608 140.561 9.98067 142.158 9.98067C143.531 9.98067 144.173 9.36068 144.173 8.67079C144.173 6.61934 137.499 8.0508 137.499 3.61056C137.499 1.64725 139.167 0.0182495 141.895 0.0182495C143.737 0.0182495 145.268 0.583537 146.414 1.66548L145.041 3.54066C144.104 2.65626 142.851 2.24901 141.669 2.24901C140.627 2.24901 140.036 2.70792 140.036 3.41605C140.036 5.27299 146.692 4.01781 146.692 8.42461C146.692 10.5824 145.164 12.2114 142.051 12.2114C139.809 12.2114 138.209 11.4516 137.114 10.3363L137.12 10.3332Z" fill="white"/>
<path d="M148.241 11.9987V0.194519H150.727V9.78617H155.629V11.9987H148.244H148.241Z" fill="white"/>
<path d="M157.294 11.9987V0.194519H165.496V2.40704H159.763V4.88397H165.377V7.09649H159.763V9.78617H165.496V11.9987H157.294Z" fill="white"/>
<path d="M170.66 11.9987V7.16639L166.213 0.194519H169.027L171.896 4.92044L174.764 0.194519H177.561L173.129 7.16639V11.9987H170.66Z" fill="white"/>
<path d="M179.435 5.11495L178.48 4.31869C179.035 4.01781 179.68 3.27321 179.818 2.63802C179.767 2.67449 179.626 2.68969 179.486 2.68969C178.827 2.68969 178.304 2.17607 178.304 1.41627C178.304 0.656477 178.931 0.0182495 179.677 0.0182495C180.495 0.0182495 181.223 0.671673 181.223 1.82352C181.223 3.15164 180.51 4.33692 179.432 5.11495H179.435Z" fill="white"/>
<path d="M182.268 10.3332L183.623 8.36991C184.441 9.23608 185.71 9.98067 187.306 9.98067C188.679 9.98067 189.321 9.36068 189.321 8.67079C189.321 6.61934 182.647 8.0508 182.647 3.61056C182.647 1.64725 184.316 0.0182495 187.044 0.0182495C188.885 0.0182495 190.417 0.583537 191.563 1.66548L190.19 3.54066C189.253 2.65626 187.999 2.24901 186.817 2.24901C185.775 2.24901 185.184 2.70792 185.184 3.41605C185.184 5.27299 191.84 4.01781 191.84 8.42461C191.84 10.5824 190.312 12.2114 187.199 12.2114C184.957 12.2114 183.358 11.4516 182.262 10.3363L182.268 10.3332Z" fill="white"/>
<path d="M194.127 2.30976V0.629097H193.533V0.240082H195.153V0.629097H194.562V2.30976H194.127Z" fill="white"/>
<path d="M197.201 2.30976V0.817526L196.628 2.30976H196.44L195.867 0.817526V2.30976H195.434V0.240082H196.04L196.532 1.53477L197.025 0.240082H197.634V2.30976H197.198H197.201Z" fill="white"/>
<path d="M73.0984 26.8238V30.5376C71.9612 29.708 70.9374 29.2946 70.027 29.2946C69.045 29.2946 68.2421 29.6472 67.6183 30.3553C66.9945 31.027 66.684 31.9235 66.684 33.045C66.684 34.0327 66.9049 34.8806 67.3496 35.5888C67.5765 35.9656 67.9526 36.4549 68.4719 37.0536C68.9943 37.6524 69.6659 38.3696 70.4927 39.2115C72.0149 40.7858 73.0506 42.1443 73.5999 43.29C74.1491 44.3993 74.4267 45.7609 74.4267 47.3686C74.4267 49.5507 73.8207 51.3499 72.6119 52.7662C71.403 54.146 69.8509 54.8328 67.9586 54.8328C66.3647 54.8328 65.0066 54.3891 63.8813 53.4986V49.7301C65.2095 50.7178 66.4214 51.2132 67.5108 51.2132C68.5287 51.2132 69.3256 50.8697 69.9017 50.1799C70.4777 49.49 70.7643 48.5539 70.7643 47.3717C70.7643 46.3474 70.5434 45.4266 70.0987 44.609C69.8718 44.22 69.5524 43.7702 69.1465 43.2657C68.7406 42.7582 68.2302 42.1959 67.6183 41.5729C66.6721 40.6216 65.8871 39.7798 65.2663 39.0473C64.6424 38.3149 64.1828 37.6767 63.8843 37.1266C63.3082 36.0538 63.0217 34.7013 63.0217 33.0662C63.0217 30.8598 63.5858 29.1092 64.7111 27.8176C65.8483 26.5138 67.3765 25.8604 69.2928 25.8604C70.621 25.8604 71.8925 26.1825 73.1014 26.8298L73.0984 26.8238Z" fill="white"/>
<path d="M81.6917 26.2372H85.4287V51.2618H91.5356V54.4803H81.6917V26.2372Z" fill="white"/>
<path d="M97.9918 26.2372H107.928V29.4557H101.729V38.4H107.227V41.6185H101.729V51.2588H107.928V54.4772H97.9918V26.2372Z" fill="white"/>
<path d="M115.48 26.2372H125.416V29.4557H119.217V38.4H124.715V41.6185H119.217V51.2588H125.416V54.4772H115.48V26.2372Z" fill="white"/>
<path d="M132.968 26.2372H137.89C140.263 26.2372 141.985 26.8481 143.062 28.0668C144.14 29.2977 144.68 31.2488 144.68 33.9203C144.68 37.6767 143.597 40.1019 141.43 41.2021C140.34 41.7036 138.764 41.9528 136.705 41.9528V54.4833H132.968V26.2372ZM136.705 38.6948C138.251 38.6948 139.317 38.3787 139.902 37.7435C140.502 37.0962 140.8 35.9504 140.8 34.3032C140.8 32.656 140.513 31.3886 139.937 30.6075C139.361 29.8265 138.457 29.4375 137.224 29.4375H136.702V38.6948H136.705Z" fill="white"/>
<path d="M163.413 26.2372H168.335C170.371 26.2372 171.887 26.7326 172.881 27.7203C174.137 28.9998 174.767 30.9571 174.767 33.592C174.767 35.6161 174.436 37.2421 173.77 38.4669C173.105 39.6917 172.155 40.4514 170.923 40.7432L176.024 54.4803H172.233L167.15 40.652V54.4803H163.413V26.2372ZM167.15 38.7495C168.598 38.7495 169.624 38.4091 170.221 37.7253C170.821 37.0415 171.12 35.8896 171.12 34.2667C171.12 33.3884 171.057 32.6377 170.932 32.0177C170.806 31.3947 170.609 30.8902 170.338 30.4981C170.069 30.1091 169.72 29.8204 169.296 29.6381C168.869 29.4557 168.365 29.3645 167.777 29.3645H167.147V38.7495H167.15Z" fill="white"/>
<path d="M183.038 26.2372H192.975V29.4557H186.775V38.4H192.273V41.6185H186.775V51.2588H192.975V54.4772H183.038V26.2372Z" fill="white"/>
<path d="M201.836 26.2372H205.033L207.478 37.7618C207.776 39.2023 208.051 40.6429 208.296 42.0896C208.54 43.5362 208.764 45.0497 208.97 46.6362C208.994 46.4295 209.012 46.2684 209.024 46.1529C209.036 46.0375 209.048 45.9554 209.06 45.9068L209.582 42.67L210.048 39.5974L210.46 37.5673L212.633 26.2433H215.865L218.417 54.4864H214.841L214.212 44.9008C214.188 44.4145 214.167 43.9921 214.149 43.6395C214.131 43.287 214.122 42.9922 214.122 42.7612L213.961 38.9744L213.871 35.4976C213.871 35.4733 213.871 35.4216 213.862 35.3426C213.853 35.2636 213.847 35.1572 213.835 35.0235L213.746 35.5918C213.65 36.2635 213.564 36.847 213.486 37.3484C213.409 37.8499 213.34 38.2693 213.28 38.6097L212.815 41.19L212.636 42.1595L210.301 54.4894H207.785L205.594 43.8432C205.296 42.4421 205.027 41.0167 204.794 39.5731C204.562 38.1265 204.347 36.613 204.156 35.0265L203.078 54.4894H199.556L201.836 26.2463V26.2372Z" fill="white"/>
<path d="M225.631 26.2372H235.568V29.4557H229.368V38.4H234.866V41.6185H229.368V51.2588H235.568V54.4772H225.631V26.2372Z" fill="white"/>
<path d="M243.116 26.2372H247.716C249.116 26.2372 250.298 26.3952 251.256 26.7113C252.143 27.0152 252.933 27.5593 253.626 28.3403C254.668 29.5104 255.411 31.0361 255.853 32.9143C256.294 34.7317 256.518 37.3363 256.518 40.725C256.518 43.8341 256.274 46.3718 255.781 48.3351C255.303 50.2133 254.512 51.6447 253.408 52.6325C252.056 53.8633 249.629 54.4803 246.131 54.4803H243.113V26.2372H243.116ZM246.853 51.1524C249.128 51.1524 250.65 50.4503 251.417 49.0493C252.208 47.6482 252.602 44.9221 252.602 40.8739C252.602 36.5188 252.226 33.5252 251.471 31.8931C250.716 30.258 249.334 29.4405 247.322 29.4405H246.856V51.1554L246.853 51.1524Z" fill="white"/>
<path d="M261.557 26.2372H265.509L267.341 32.3824C267.401 32.5648 267.461 32.7654 267.52 32.9872C267.58 33.206 267.652 33.4431 267.735 33.7014C268.419 35.92 268.884 37.7861 269.135 39.2996C269.35 37.7891 269.529 36.7315 269.675 36.1358L270.251 33.6103L270.466 32.6225L272.012 26.2372H275.911L271.078 42.3357V54.4833H267.341V42.3357L261.557 26.2372Z" fill="white"/>
<path d="M29.0186 53.0185C29.0186 53.0185 29.0455 53.0276 29.0545 53.0306C29.0216 53.0185 28.9948 53.0124 28.9679 53.0093C28.9768 53.0124 29.0007 53.0185 29.0186 53.0185Z" fill="white"/>
<path d="M29.0545 53.0306C29.2843 53.0671 29.5141 53.1005 29.741 53.1218H29.7917C29.8783 53.1309 29.9619 53.137 30.0544 53.1461C29.4126 53.058 28.7023 52.9455 28.0814 52.8239C28.3739 52.8969 28.6664 52.9607 28.9679 53.0093C28.9948 53.0124 29.0246 53.0185 29.0545 53.0306Z" fill="white"/>
<path d="M52.4494 17.2868C50.96 14.0896 48.9393 11.2055 46.5246 8.72548C48.9483 11.2055 50.8018 14.2507 51.9032 17.5209C51.9181 17.5665 51.9301 17.612 51.948 17.6637C53.0285 20.8974 53.4643 24.2891 53.3538 27.6292C53.3061 29.3281 53.1957 31.0239 52.8464 32.6864C52.5211 34.3488 52.0316 35.9808 51.3809 37.543C50.1064 40.6672 48.1931 43.5393 45.8351 45.9189C43.4502 48.3229 40.6385 50.2255 37.5493 51.5141C35.7733 52.2526 33.8809 52.8969 31.9676 53.1218C31.3229 53.2038 30.6872 53.2038 30.0544 53.1461C29.9648 53.137 29.8813 53.1309 29.7917 53.1218H29.741C29.5141 53.0975 29.2843 53.0641 29.0545 53.0306C29.0455 53.0276 29.0306 53.0276 29.0186 53.0185C28.9978 53.0185 28.9769 53.0124 28.9679 53.0093C28.6664 52.9607 28.3739 52.8969 28.0814 52.824C28.0426 52.8209 28.0008 52.8148 27.962 52.8057C25.9861 52.4045 24.0161 51.8545 22.1267 51.0977C21.3536 50.8029 20.6015 50.4625 19.8612 50.0948C19.6523 50.2011 19.4463 50.2954 19.2344 50.3835C19.0135 50.4777 18.7867 50.5567 18.5479 50.6297C17.8554 50.8303 17.1391 50.9214 16.4257 50.888C14.993 50.8363 13.6528 50.2832 12.5246 49.493C13.7245 50.1647 15.0915 50.5476 16.4197 50.4564C17.0854 50.4108 17.736 50.2619 18.3539 50.0127C18.3867 49.9914 18.4166 49.9762 18.4584 49.9671C18.6554 49.879 18.8554 49.7817 19.0374 49.6754C18.2047 49.2316 17.3898 48.7606 16.6018 48.2409C14.9094 47.1133 13.3513 45.7822 11.9634 44.2717C11.8201 44.2717 11.6948 44.2687 11.5545 44.2626C11.3127 44.2474 11.059 44.2352 10.8113 44.2048C10.0979 44.1046 9.40244 43.8827 8.76369 43.5666C7.48022 42.9254 6.46538 41.8677 5.75201 40.6794C6.58477 41.7917 7.67722 42.7005 8.93681 43.1685C9.55765 43.4055 10.2113 43.5301 10.871 43.5605H10.9784C11.1038 43.5605 11.2291 43.5666 11.3515 43.5605C10.1546 42.1169 9.11291 40.5487 8.2891 38.862C7.37276 36.9473 6.69521 34.9171 6.31316 32.8353C5.51621 28.6807 5.73112 24.4289 6.61761 20.3959C6.43553 24.5262 6.60865 28.6412 7.60857 32.5405C8.59057 36.4276 10.4292 40.0412 13.0827 42.9618C13.9692 43.9617 14.9482 44.8765 15.981 45.7244C16.0287 45.6728 16.0765 45.615 16.1242 45.5542C16.8764 44.6303 17.5808 43.6213 18.1987 42.5728C18.927 41.3389 19.5568 40.0351 20.0433 38.6735C20.5179 37.315 20.8582 35.8897 20.9716 34.443C21.094 32.9933 20.9865 31.5163 20.6403 30.0909C21.085 31.492 21.291 32.972 21.2611 34.4521C21.2342 35.9444 20.9865 37.4153 20.5806 38.8559C20.1717 40.2843 19.6135 41.6671 18.9419 42.9983C18.3658 44.1228 17.7271 45.1956 16.9779 46.232C16.9391 46.2928 16.9033 46.3505 16.8555 46.4052C18.6494 47.7485 20.6104 48.8943 22.6461 49.8577C23.1445 50.0826 23.652 50.3045 24.1743 50.5142C24.3056 50.344 24.431 50.1677 24.5534 49.9975C25.1235 49.2468 25.6786 48.4658 26.192 47.6574C26.8666 46.5967 27.4904 45.4995 28.0456 44.372C28.6008 43.2384 29.0843 42.0653 29.4306 40.8466C29.7798 39.6339 29.9917 38.3635 29.929 37.0871C30.0872 38.3575 29.9678 39.6613 29.7081 40.9195C29.4455 42.1808 29.0395 43.4116 28.559 44.6151C28.0844 45.8035 27.5292 46.9675 26.9203 48.1071C26.5174 48.8487 26.0876 49.572 25.6458 50.2802C25.5204 50.4777 25.404 50.6753 25.2727 50.8789C25.2727 50.8789 29.1112 52.2678 31.4125 51.9396C31.5557 51.7116 31.8632 51.0886 31.9975 50.8333C32.878 49.2803 33.6003 47.3656 33.9734 46.2563C35.8897 40.5913 36.1733 35.9808 28.7649 27.3921C24.3116 22.2316 21.3327 18.2138 21.3417 13.7006C21.3566 7.76206 24.5355 5.11494 26.8964 2.8386C27.1352 2.61978 27.6009 2.20037 28.165 1.72018C28.2098 1.68067 28.2605 1.63812 28.3083 1.59861C28.8754 1.12146 29.5231 0.613918 30.129 0.215786C29.8663 0.176276 29.6126 0.142846 29.3529 0.115493C28.9082 0.0759836 28.4665 0.0516702 28.0217 0.0395135C24.4877 0.00608251 20.9507 0.720289 17.6793 2.07576C14.411 3.44035 11.4082 5.46749 8.90099 8.0052C6.39375 10.5338 4.37303 13.573 3.01195 16.8887C1.6449 20.2166 0.925564 23.812 0.910639 27.4073C0.907655 28.8783 1.02406 30.3462 1.24792 31.808C1.57327 34.0783 2.17023 36.2969 3.03881 38.4152C4.39989 41.7218 6.42956 44.7276 8.92487 47.2379C11.4321 49.7422 14.4259 51.7116 17.6704 53.0306C19.4911 53.7722 21.3984 54.298 23.3296 54.6079C24.8041 54.8632 26.2965 55.003 27.7949 55.0061C31.3289 55.0274 34.8629 54.3314 38.1283 52.9638C41.4026 51.6083 44.4054 49.566 46.9007 47.0465C49.4199 44.5027 51.4316 41.4817 52.8017 38.1478C54.1568 34.832 54.894 31.2397 54.897 27.6383C54.8134 24.0338 53.9299 20.4901 52.4465 17.2899L52.4494 17.2868Z" fill="white"/>
</g>
<defs>
<clipPath id="clip0_3_9">
<rect width="275" height="55" fill="white" transform="translate(0.910645)"/>
</clipPath>
</defs>
</svg>
