<?xml version="1.0" standalone="no"?>
<!DOCTYPE svg PUBLIC "-//W3C//DTD SVG 20010904//EN"
 "http://www.w3.org/TR/2001/REC-SVG-20010904/DTD/svg10.dtd">
<svg version="1.0" xmlns="http://www.w3.org/2000/svg"
 width="312.000000pt" height="312.000000pt" viewBox="0 0 312.000000 312.000000"
 preserveAspectRatio="xMidYMid meet">
<metadata>
Created by potrace 1.14, written by Peter Selinger 2001-2017
</metadata>
<g transform="translate(0.000000,312.000000) scale(0.100000,-0.100000)"
fill="#000000" stroke="none">
<path d="M1294 3109 c-71 -35 -62 -139 15 -173 75 -33 923 -366 931 -366 11 0
19 -22 25 -78 3 -26 8 -56 10 -68 4 -20 8 -45 19 -126 3 -18 12 -82 21 -143 9
-60 18 -126 21 -145 6 -41 23 -155 29 -190 2 -14 11 -74 20 -135 24 -164 31
-187 62 -212 35 -28 87 -23 122 11 28 28 30 62 13 166 -6 36 -14 85 -17 110
-3 25 -10 72 -15 105 -5 33 -12 78 -15 100 -4 22 -8 51 -10 65 -2 14 -7 48
-10 75 -4 28 -8 57 -10 65 -2 8 -7 38 -11 65 -3 28 -7 57 -9 65 -2 8 -8 51
-15 95 -6 44 -13 91 -15 105 -2 14 -7 45 -10 70 -11 79 -25 117 -48 133 -13 8
-189 80 -392 160 -204 80 -433 171 -510 201 -143 57 -165 62 -201 45z"/>
<path d="M763 2688 c-147 -117 -273 -217 -279 -223 -7 -5 -95 -75 -197 -155
-104 -81 -191 -156 -197 -171 -30 -70 34 -148 105 -128 30 9 76 44 485 370 91
72 203 161 250 198 47 36 91 72 99 79 46 44 51 44 157 3 213 -83 740 -292 759
-300 138 -60 174 -64 216 -22 51 52 31 126 -43 156 -24 9 -225 89 -448 176
-223 88 -414 164 -425 169 -55 26 -159 60 -185 60 -23 0 -86 -45 -297 -212z"/>
<path d="M2648 2540 c-30 -30 -30 -32 -24 -101 4 -38 9 -77 10 -87 4 -21 14
-84 21 -137 3 -22 7 -51 10 -65 5 -23 10 -57 21 -140 2 -19 6 -46 9 -60 3 -14
7 -45 10 -70 3 -25 7 -56 10 -70 3 -14 7 -45 10 -70 4 -25 10 -67 15 -95 5
-27 11 -68 14 -90 3 -22 8 -58 11 -80 6 -39 5 -41 -52 -86 -32 -25 -168 -133
-303 -240 -135 -107 -298 -236 -362 -287 -125 -99 -145 -128 -126 -184 12 -35
29 -48 73 -58 29 -7 41 -4 72 19 39 28 804 633 854 675 35 29 49 57 44 87 -2
13 -6 47 -10 74 -9 72 -15 112 -25 180 -9 54 -13 86 -25 165 -2 14 -7 48 -11
75 -3 28 -8 59 -10 70 -2 11 -7 40 -10 65 -3 25 -8 52 -9 62 -2 9 -7 38 -11
65 -3 26 -8 55 -9 63 -2 9 -7 43 -11 75 -4 33 -9 62 -9 65 -1 3 -5 32 -10 65
-4 33 -12 71 -17 84 -24 66 -99 81 -150 31z"/>
<path d="M1077 2535 c-15 -7 -48 -31 -75 -53 -26 -22 -180 -144 -342 -272
-162 -129 -338 -267 -390 -309 -52 -41 -103 -83 -113 -93 -26 -27 -26 -78 3
-248 5 -30 12 -75 15 -100 3 -25 10 -70 15 -100 5 -30 12 -75 15 -100 3 -25 8
-56 10 -70 6 -32 12 -74 20 -130 3 -25 8 -56 10 -70 3 -14 11 -72 19 -130 25
-176 26 -183 38 -233 8 -37 18 -53 40 -67 41 -25 87 -18 120 19 27 30 29 50
15 136 -6 34 -17 105 -32 210 -3 23 -7 50 -9 60 -2 11 -7 45 -11 75 -7 59 -11
88 -19 135 -11 64 -26 162 -30 200 -3 22 -15 100 -26 174 -17 110 -18 137 -8
146 7 7 81 66 163 131 83 65 152 121 155 124 3 3 57 46 120 95 63 49 183 143
265 209 83 66 152 121 154 122 2 2 5 22 8 46 3 34 0 48 -19 70 -28 33 -74 43
-111 23z"/>
<path d="M534 1700 c-33 -13 -62 -56 -59 -87 1 -16 6 -53 10 -83 5 -30 9 -62
10 -70 1 -8 5 -33 9 -55 12 -81 67 -451 72 -490 2 -22 9 -69 15 -105 13 -80
14 -89 34 -225 10 -70 22 -119 34 -135 14 -19 110 -61 412 -181 217 -86 405
-161 419 -167 114 -48 266 -102 286 -102 13 0 38 13 55 28 25 22 32 37 31 62
-2 69 -6 71 -508 270 -258 102 -483 191 -501 199 -34 14 -39 23 -47 86 -3 22
-12 85 -20 140 -17 116 -27 182 -31 210 -7 56 -16 113 -21 135 -2 14 -6 44 -9
68 -2 23 -9 68 -14 100 -6 31 -13 74 -16 95 -3 20 -7 54 -10 75 -3 20 -10 68
-15 105 -12 83 -22 102 -60 122 -32 17 -45 18 -76 5z"/>
<path d="M2890 1097 c-21 -11 -595 -460 -610 -477 -3 -3 -56 -46 -118 -94
l-113 -89 -222 88 c-122 48 -345 137 -496 197 -151 59 -287 108 -303 108 -43
0 -68 -17 -84 -57 -14 -31 -13 -38 3 -71 20 -41 19 -41 768 -335 322 -126 333
-130 370 -128 16 1 162 108 270 199 11 9 63 51 115 92 52 41 102 80 110 87 8
7 105 83 215 171 110 87 205 165 212 173 28 35 17 97 -24 129 -30 23 -58 25
-93 7z"/>
</g>
</svg>
